<svg width="89" height="89" viewBox="0 0 89 89" fill="none" xmlns="http://www.w3.org/2000/svg">
<g clip-path="url(#clip0_51_192)">
<path d="M20.0561 7.91441C27.2924 3.07978 35.7998 0.499545 44.5025 0.5C56.1715 0.501832 67.3621 5.13832 75.6132 13.3898C83.8643 21.6413 88.5002 32.8321 88.5014 44.5012C88.5014 53.2039 85.9207 61.7111 81.0857 68.9471C76.2507 76.1831 69.3785 81.8229 61.3382 85.1532C53.2979 88.4834 44.4506 89.3547 35.9152 87.6567C27.3797 85.9587 19.5395 81.7678 13.3859 75.6139C7.23229 69.46 3.04177 61.6195 1.34423 53.084C-0.353302 44.5484 0.518396 35.7012 3.84909 27.6611C7.17979 19.6209 12.8199 12.749 20.0561 7.91441Z" fill="#D0DDF5" stroke="#FCD902"/>
<path d="M70.4715 67.66C69.3957 63.6781 61.2155 60.2877 50.9558 59.177L44.3194 65.9577L37.7016 59.177C27.442 60.2901 19.2268 63.6781 18.1417 67.66C17.5852 69.7557 16.8866 74.0635 16.3301 77.9545C24.2161 84.4008 34.0752 87.946 44.2606 87.9982C54.4459 88.0503 64.3408 84.6062 72.2924 78.241C71.7452 74.3127 71.028 69.7603 70.4715 67.66Z" fill="#11225A"/>
<path d="M44.5012 10.7661C16.7005 10.7661 23.6582 77.9731 23.6582 77.9731C23.6582 77.9731 29.5961 69.8651 44.5012 69.8651C59.4063 69.8651 65.3069 77.9731 65.3069 77.9731C65.3069 77.9731 72.2926 10.7661 44.5012 10.7661Z" fill="#355FC1"/>
<path d="M44.4968 10.7661C18.3447 10.7661 22.9552 74.8528 23.6003 82.7816C30.0329 86.1945 37.2032 87.9805 44.4852 87.9838C51.7671 87.987 58.939 86.2074 65.3747 82.8002C66.0034 74.9436 70.6675 10.7661 44.4968 10.7661Z" fill="#355FC1"/>
<path d="M58.6518 53.8121C57.9532 54.9414 57.1988 56.0544 56.4094 57.1116C54.8389 59.2496 53.0868 61.2479 51.1725 63.0844C49.2562 64.9066 47.1722 66.5439 44.9482 67.9744C42.6842 69.3979 40.2944 70.6108 37.8088 71.5976C40.4801 71.0762 43.0528 70.138 45.4326 68.8173C47.8391 67.5118 50.0594 65.8891 52.034 63.9925C54.0068 62.102 55.7469 59.9828 57.2174 57.6798C57.9549 56.5359 58.6138 55.3433 59.1897 54.1101C59.776 52.8903 60.262 51.6248 60.6427 50.3262C60.0326 51.5161 59.369 52.6827 58.6518 53.8121Z" fill="#0B2C9F"/>
<path d="M35.2987 61.937C34.2415 60.7541 33.217 59.5526 32.2506 58.2952C31.2843 57.0378 30.3668 55.7664 29.4889 54.4391C28.6111 53.1118 27.7844 51.7496 27.0137 50.3315C27.0761 50.7378 27.1663 51.1392 27.2838 51.5331C27.3909 51.9266 27.5166 52.3224 27.661 52.6973C27.9437 53.4616 28.267 54.21 28.6297 54.9397C29.3683 56.4012 30.2456 57.7884 31.2493 59.0823C32.2537 60.3737 33.3763 61.5688 34.6025 62.6519C35.8279 63.7292 37.1697 64.6664 38.6029 65.4462C37.4899 64.2494 36.3559 63.12 35.2987 61.937Z" fill="#0B2C9F"/>
<path d="M51.4775 49.5996H37.5225C39.6927 56.1638 37.7018 59.1607 37.7018 59.1607L42.5265 67.6273H46.4735L51.2982 59.1607C51.2982 59.1607 49.3073 56.1638 51.4775 49.5996Z" fill="#355FC1"/>
<path d="M44.5014 12.8293C36.6099 12.8293 30.1877 13.8516 30.1877 30.424C30.0758 35.0167 30.9311 39.5817 32.6979 43.8225C35.9975 51.2739 41.7211 53.8843 44.499 53.8843C47.277 53.8843 52.982 51.2832 56.3002 43.8225C58.067 39.5817 58.9222 35.0167 58.8104 30.424C58.815 13.8516 52.3929 12.8293 44.5014 12.8293Z" fill="#F4B382"/>
<path d="M42.366 42.891C42.2938 42.6209 42.2752 42.3531 42.2216 42.0481C42.1112 42.1822 42.0373 42.3427 42.0073 42.5138C41.9715 42.667 41.9715 42.8263 42.0073 42.9795C42.0487 43.1387 42.1362 43.2821 42.2588 43.3917C42.399 43.5185 42.5744 43.5998 42.7618 43.6245C42.5724 43.4157 42.4366 43.164 42.366 42.891Z" fill="#CE9163"/>
<path d="M43.8912 42.9074C43.8341 42.7918 43.7383 42.6999 43.6205 42.6476C43.5027 42.5953 43.3703 42.5859 43.2462 42.621C43.0724 42.6539 42.9112 42.7345 42.7805 42.8538C43.0073 42.829 43.2366 42.866 43.4441 42.9609C43.6234 43.0494 43.7841 43.1751 43.982 43.3009C43.9836 43.1643 43.9525 43.0294 43.8912 42.9074Z" fill="#AD7550"/>
<path d="M45.81 42.6208C45.6781 42.5951 45.5417 42.6073 45.4165 42.6558C45.304 42.7051 45.2143 42.7948 45.165 42.9072C45.102 43.0282 45.0769 43.1653 45.0928 43.3008C45.2638 43.1748 45.4435 43.0612 45.6307 42.9608C45.8377 42.8643 46.0674 42.8272 46.2943 42.8537C46.1524 42.7406 45.9869 42.661 45.81 42.6208Z" fill="#AD7550"/>
<path d="M46.9929 42.5138C46.9551 42.3452 46.8821 42.1865 46.7787 42.0481C46.7251 42.3531 46.7065 42.6209 46.6343 42.891C46.5646 43.1645 46.4295 43.417 46.2407 43.6268C46.4256 43.5939 46.5989 43.5137 46.7437 43.394C46.8567 43.2767 46.9425 43.136 46.9952 42.9819C47.0305 42.8277 47.0297 42.6676 46.9929 42.5138Z" fill="#CE9163"/>
<path d="M45.9334 37.3304C45.9478 36.8556 45.9897 36.3821 46.0592 35.9123C46.1345 35.4344 46.261 34.966 46.4364 34.5151C46.1346 34.9125 45.9096 35.3626 45.7727 35.8424C45.6401 36.3221 45.5681 36.8165 45.5585 37.3141C45.5469 37.8131 45.5891 38.312 45.6843 38.802C45.7647 39.2917 45.9095 39.7685 46.1151 40.2201C45.9925 39.2618 45.9318 38.2965 45.9334 37.3304Z" fill="#CE9163"/>
<path d="M43.0645 36.9181C43.0518 36.7478 43.0214 36.5792 42.9737 36.4152C42.9341 36.25 42.8672 36.0926 42.7757 35.9495C42.7608 36.1167 42.7546 36.2846 42.7571 36.4524C42.7571 36.6131 42.7757 36.7761 42.7757 36.9368C42.7847 37.0991 42.8026 37.2608 42.8293 37.4211C42.8479 37.5818 42.8829 37.7448 42.9178 37.9241C42.9809 37.7635 43.0171 37.5935 43.0249 37.4211C43.0747 37.2584 43.0882 37.0867 43.0645 36.9181Z" fill="#CE9163"/>
<path d="M47.2092 35.7331C47.2092 35.8239 47.6214 37.0953 50.6881 36.6831C51.2386 36.6167 51.7494 36.3629 52.1349 35.9643C52.5203 35.5658 52.7568 35.0467 52.8047 34.4943C52.3584 34.2003 51.8576 33.999 51.332 33.9021C50.8065 33.8052 50.2668 33.8148 49.745 33.9303C49.2232 34.0459 48.7299 34.2649 48.2943 34.5746C47.8588 34.8842 47.4898 35.2782 47.2092 35.7331Z" fill="#472B14"/>
<path d="M47.2092 35.733C47.2279 35.9309 47.4071 36.0031 47.5678 36.0566C51.9618 37.5819 52.6254 34.7294 52.6254 34.7294C51.7333 34.2989 50.7271 34.1641 49.753 34.3446C48.779 34.525 47.8879 35.0114 47.2092 35.733Z" fill="#F7F0EB"/>
<path d="M50.2573 36.2175C50.8617 36.2175 51.3517 35.7359 51.3517 35.1417C51.3517 34.5476 50.8617 34.0659 50.2573 34.0659C49.6528 34.0659 49.1628 34.5476 49.1628 35.1417C49.1628 35.7359 49.6528 36.2175 50.2573 36.2175Z" fill="#331F12"/>
<path d="M52.6969 34.1727C48.4822 32.077 47.2085 35.7328 47.2085 35.7328C47.8578 35.0437 48.7023 34.5695 49.6287 34.3739C50.5552 34.1782 51.5193 34.2705 52.3918 34.6384C52.4737 34.6458 52.5531 34.6704 52.6247 34.7106C53.4863 35.1763 53.5747 34.4591 53.5747 34.4591C53.2663 34.4217 52.9681 34.3244 52.6969 34.1727Z" fill="#191919"/>
<path d="M54.563 32.9526C54.4148 32.7509 54.2401 32.57 54.0437 32.4147C53.2534 31.667 52.2598 31.1693 51.1877 30.9842C50.1156 30.799 49.0127 30.9346 48.0174 31.3739C47.4073 31.6067 47.03 31.7139 47.193 32.289C47.2044 32.3664 47.2326 32.4404 47.2755 32.5058C47.3185 32.5711 47.3753 32.6263 47.4419 32.6673C47.5085 32.7084 47.5832 32.7344 47.6609 32.7434C47.7386 32.7525 47.8174 32.7444 47.8917 32.7198C48.0523 32.6849 48.3411 32.5405 48.5553 32.4683C49.3049 32.0625 50.1472 31.8589 50.9993 31.8777C51.8515 31.8965 52.684 32.137 53.415 32.5754C54.2416 32.8991 54.6002 33.0621 54.563 32.9526Z" fill="#191919"/>
<path d="M36.2136 34.4966C36.2615 35.049 36.498 35.5681 36.8835 35.9667C37.2689 36.3653 37.7798 36.6191 38.3303 36.6855C41.397 37.0976 41.8092 35.8239 41.8092 35.7354C41.5268 35.2825 41.157 34.8905 40.7213 34.5823C40.2856 34.2741 39.7927 34.0559 39.2716 33.9406C38.7506 33.8252 38.2117 33.8149 37.6866 33.9104C37.1615 34.0059 36.6607 34.2052 36.2136 34.4966Z" fill="#472B14"/>
<path d="M36.3931 34.7294C36.3931 34.7294 37.0567 37.5818 41.4507 36.0566C41.6114 36.0031 41.7907 35.9123 41.8093 35.733C41.1276 35.0161 40.2367 34.533 39.264 34.3527C38.2912 34.1725 37.2864 34.3043 36.3931 34.7294Z" fill="#F7F0EB"/>
<path d="M38.7426 36.2175C39.3471 36.2175 39.837 35.7359 39.837 35.1417C39.837 34.5476 39.3471 34.0659 38.7426 34.0659C38.1382 34.0659 37.6482 34.5476 37.6482 35.1417C37.6482 35.7359 38.1382 36.2175 38.7426 36.2175Z" fill="#331F12"/>
<path d="M36.3025 34.1729C36.0348 34.3194 35.743 34.4164 35.4409 34.4593C35.4409 34.4593 35.5131 35.1765 36.3909 34.7108C36.4649 34.6761 36.5432 34.6518 36.6238 34.6386C37.4963 34.2707 38.4604 34.1784 39.3869 34.374C40.3134 34.5696 41.1579 35.0439 41.8072 35.733C41.8072 35.733 40.5358 32.0562 36.3025 34.1729Z" fill="#191919"/>
<path d="M40.9875 31.374C39.992 30.9353 38.8892 30.8 37.8173 30.9852C36.7453 31.1703 35.7518 31.6677 34.9612 32.4149C34.7648 32.5701 34.5901 32.751 34.4419 32.9528C34.407 33.0599 34.7469 32.8992 35.5899 32.5593C36.3191 32.1161 37.1522 31.8729 38.0054 31.8541C38.8585 31.8353 39.7015 32.0415 40.4496 32.4521C40.6638 32.5243 40.9339 32.6664 41.1132 32.7036C41.1875 32.7274 41.266 32.7349 41.3434 32.7254C41.4208 32.716 41.4953 32.6899 41.5616 32.649C41.628 32.608 41.6847 32.5532 41.7279 32.4883C41.7711 32.4234 41.7997 32.3499 41.8118 32.2728C41.9888 31.7163 41.6115 31.6092 40.9875 31.374Z" fill="#191919"/>
<path d="M46.3641 45.2405C45.7233 45.2907 45.0945 45.4424 44.5012 45.6899C43.8947 45.4433 43.2538 45.2918 42.6011 45.2405C41.6954 45.5875 40.9399 46.2409 40.4658 47.087C41.7226 47.7006 43.1027 48.0195 44.5012 48.0195C45.8998 48.0195 47.2799 47.7006 48.5366 47.087C48.5366 47.087 47.2443 45.3662 46.3641 45.2405Z" fill="#D6876B"/>
<path d="M45.5864 46.4329C45.2278 46.4143 44.7784 46.738 44.492 46.738C44.152 46.738 43.6304 46.4143 43.2369 46.4515C40.8873 46.5959 40.4565 47.0966 40.4565 47.0966C41.5391 48.1434 42.9861 48.7286 44.492 48.7286C45.9978 48.7286 47.4448 48.1434 48.5274 47.0966C48.5274 47.0966 48.05 46.568 45.5864 46.4329Z" fill="#CC785E"/>
<path d="M30.4554 30.9268C29.0932 31.1596 28.0523 31.7511 28.8254 36.2545C29.5985 40.7579 30.5462 40.9722 31.9294 40.7393L30.4554 30.9268Z" fill="#F4B382"/>
<path d="M58.5609 30.9268L57.1079 40.7556C58.4701 40.9885 59.4365 40.7742 60.2119 36.2708C60.9873 31.7674 59.9231 31.1596 58.5609 30.9268Z" fill="#F4B382"/>
<path d="M44.5011 10.7661C28.6459 10.7661 25.7026 30.7475 23.1924 50.3167C23.1924 50.3167 29.2723 49.7067 29.5959 48.6658C31.354 42.9445 30.9768 24.2369 44.4661 24.2369C57.9555 24.2369 57.5783 42.8374 59.3689 48.6122C59.6926 49.6694 65.7911 50.2981 65.7911 50.2981C63.2972 30.7475 60.3563 10.7661 44.5011 10.7661Z" fill="#355FC1"/>
</g>
<defs>
<clipPath id="clip0_51_192">
<rect width="89" height="89" fill="white"/>
</clipPath>
</defs>
</svg>
