<svg width="349" height="349" viewBox="0 0 349 349" fill="none" xmlns="http://www.w3.org/2000/svg">
<path d="M347 174.5C347 269.769 269.769 347 174.5 347C79.2309 347 2 269.769 2 174.5C2 79.2309 79.2309 2 174.5 2C269.769 2 347 79.2309 347 174.5Z" fill="#342A69" fill-opacity="0.94" stroke="#FCD901" stroke-width="4"/>
<path d="M317.228 83L166 239.207L166.267 256H173.214L337 124.317C332.19 109.657 325.511 95.5287 317.228 83Z" fill="#342A69"/>
<path d="M345.73 71.7094L314.92 41.1716C310.829 37.0815 304.013 37.0815 299.651 41.1716L167.957 177.228L110.971 121.06C106.881 116.97 100.065 116.97 95.7028 121.06L68.4367 148.054C64.3466 152.144 64.3466 158.96 68.4367 163.05L159.505 253.299C161.959 255.753 165.231 256.571 168.502 256.298C171.774 256.571 175.046 255.753 177.5 253.299L345.73 86.978C349.82 82.6152 349.82 75.7988 345.73 71.7094Z" fill="#F2F1EF"/>
<path d="M177.5 253.299L345.73 86.9779C349.82 82.8878 349.82 76.0714 345.73 71.9814L340.822 67.3464L168.229 236.939L72.7992 143.963L68.7092 148.054C64.6191 152.144 64.6191 158.96 68.7092 163.05L159.777 253.3C162.231 255.754 165.503 256.572 168.775 256.299C171.774 256.571 175.046 255.753 177.5 253.299Z" fill="#E6E5E3"/>
</svg>
